<svg width="51" height="51" viewBox="0 0 51 51" fill="none" xmlns="http://www.w3.org/2000/svg">
<circle cx="25.094" cy="25.0936" r="24.5" transform="rotate(90.2148 25.094 25.0936)" stroke="white"/>
<circle cx="25" cy="25" r="20" fill="#504482"/>
<path d="M29.6416 32H20.8701V30.2598L25.0098 25.8477C25.5781 25.2266 25.9971 24.6846 26.2666 24.2217C26.542 23.7588 26.6797 23.3193 26.6797 22.9033C26.6797 22.335 26.5361 21.8896 26.249 21.5674C25.9619 21.2393 25.5518 21.0752 25.0186 21.0752C24.4443 21.0752 23.9902 21.2744 23.6562 21.6729C23.3281 22.0654 23.1641 22.584 23.1641 23.2285H20.6152C20.6152 22.4492 20.7998 21.7373 21.1689 21.0928C21.5439 20.4482 22.0713 19.9443 22.751 19.5811C23.4307 19.2119 24.2012 19.0273 25.0625 19.0273C26.3809 19.0273 27.4033 19.3438 28.1299 19.9766C28.8623 20.6094 29.2285 21.5029 29.2285 22.6572C29.2285 23.29 29.0645 23.9346 28.7363 24.5908C28.4082 25.2471 27.8457 26.0117 27.0488 26.8848L24.1396 29.9521H29.6416V32Z" fill="white"/>
</svg>
