<svg width="51" height="51" viewBox="0 0 51 51" fill="none" xmlns="http://www.w3.org/2000/svg">
<circle cx="25.094" cy="25.0936" r="24.5" transform="rotate(90.2148 25.094 25.0936)" stroke="white"/>
<circle cx="25" cy="25" r="20" fill="#504482"/>
<path d="M23.4541 24.4766H24.8076C25.4521 24.4766 25.9297 24.3154 26.2402 23.9932C26.5508 23.6709 26.7061 23.2432 26.7061 22.71C26.7061 22.1943 26.5508 21.793 26.2402 21.5059C25.9355 21.2188 25.5137 21.0752 24.9746 21.0752C24.4883 21.0752 24.0811 21.21 23.7529 21.4795C23.4248 21.7432 23.2607 22.0889 23.2607 22.5166H20.7207C20.7207 21.8486 20.8994 21.251 21.2568 20.7236C21.6201 20.1904 22.124 19.7744 22.7686 19.4756C23.4189 19.1768 24.1338 19.0273 24.9131 19.0273C26.2666 19.0273 27.3271 19.3525 28.0947 20.0029C28.8623 20.6475 29.2461 21.5381 29.2461 22.6748C29.2461 23.2607 29.0674 23.7998 28.71 24.292C28.3525 24.7842 27.8838 25.1621 27.3037 25.4258C28.0244 25.6836 28.5605 26.0703 28.9121 26.5859C29.2695 27.1016 29.4482 27.7109 29.4482 28.4141C29.4482 29.5508 29.0322 30.4619 28.2002 31.1475C27.374 31.833 26.2783 32.1758 24.9131 32.1758C23.6357 32.1758 22.5898 31.8389 21.7754 31.165C20.9668 30.4912 20.5625 29.6006 20.5625 28.4932H23.1025C23.1025 28.9736 23.2812 29.3662 23.6387 29.6709C24.002 29.9756 24.4473 30.1279 24.9746 30.1279C25.5781 30.1279 26.0498 29.9697 26.3896 29.6533C26.7354 29.3311 26.9082 28.9062 26.9082 28.3789C26.9082 27.1016 26.2051 26.4629 24.7988 26.4629H23.4541V24.4766Z" fill="white"/>
</svg>
