<svg width="20" height="20" viewBox="0 0 36 36" fill="none" xmlns="http://www.w3.org/2000/svg">
<path fill-rule="evenodd" clip-rule="evenodd" d="M18.0023 23.916L29.6542 35.1434C30.8231 36.2784 31.5836 36.2901 32.7739 35.1434L35.1117 32.8903C36.257 31.787 36.3346 31.0628 35.1117 29.8844L22.7758 17.9995L35.1128 6.11457C36.2682 4.99755 36.2907 4.24369 35.1128 3.10761L32.775 0.855571C31.5622 -0.313332 30.813 -0.259334 29.6553 0.855571L18.0023 12.083L6.35038 0.85663C5.19273 -0.258275 4.44346 -0.312273 3.23068 0.85663L0.892877 3.10867C-0.286152 4.24475 -0.264776 4.99861 0.892877 6.11563L13.2288 17.9995L0.892877 29.8844C-0.330028 31.0628 -0.264776 31.787 0.892877 32.8903L3.22956 35.1434C4.40971 36.2901 5.17023 36.2784 6.34926 35.1434L18.0023 23.916V23.916Z" fill="white"/>
</svg>
