<svg width="50" height="47" viewBox="0 0 50 47" fill="none" xmlns="http://www.w3.org/2000/svg">
<rect width="50" height="47" fill="#504482"/>
<path d="M36.028 13.4208C33.5142 11.2147 30.1719 9.99988 26.617 10C26.0345 10 25.5625 10.4144 25.5625 10.9255C25.5625 11.4366 26.0347 11.8509 26.617 11.8509C29.6086 11.8508 32.4211 12.8731 34.5366 14.7296C36.6521 16.5861 37.8171 19.0545 37.8169 21.68C37.8169 22.1911 38.2889 22.6055 38.8715 22.6055C39.4539 22.6055 39.926 22.1911 39.926 21.6801C39.9262 18.5601 38.5419 15.6268 36.028 13.4208Z" fill="white"/>
<path d="M31.69 21.6797C31.69 22.1907 32.1621 22.6051 32.7447 22.605C33.3271 22.605 33.7991 22.1906 33.7991 21.6795C33.7988 18.2048 30.5769 15.3774 26.6172 15.377C26.617 15.377 26.6172 15.377 26.617 15.377C26.0347 15.377 25.5626 15.7912 25.5625 16.3023C25.5625 16.8134 26.0345 17.2277 26.6169 17.2279C29.414 17.2282 31.6897 19.2252 31.69 21.6797Z" fill="white"/>
<path d="M29.3563 26.3989C27.7489 26.3259 26.93 27.375 26.5373 27.8789C26.2084 28.3008 26.3316 28.8767 26.8123 29.1653C27.293 29.4539 27.9493 29.3458 28.2781 28.924C28.7421 28.3286 28.9523 28.2349 29.2375 28.2468C30.1502 28.3409 33.7448 30.6526 34.1047 31.3754C34.195 31.5883 34.1916 31.797 34.0947 32.0508C33.7174 33.0337 33.0926 33.7245 32.2878 34.0483C31.5232 34.3559 30.5858 34.328 29.5775 33.9679C25.8125 32.6212 22.5231 30.7418 19.801 28.3818C19.7999 28.3808 19.7987 28.3799 19.7977 28.3789C17.1141 25.9924 14.9765 23.1094 13.4444 19.8103C13.034 18.9247 13.0022 18.1019 13.3528 17.431C13.7217 16.7247 14.5088 16.1765 15.6279 15.8457C15.9181 15.7603 16.1555 15.7576 16.3958 15.836C17.2224 16.153 19.8564 19.3075 19.9627 20.0994C19.9779 20.359 19.8703 20.5434 19.1924 20.9499C18.7116 21.2381 18.588 21.814 18.9166 22.236C19.245 22.658 19.9011 22.7663 20.3821 22.4781C20.9566 22.1338 22.1518 21.4172 22.0688 20.0017C21.9774 18.5232 18.7002 14.6078 17.1342 14.1025C16.4378 13.8747 15.7053 13.8707 14.9561 14.0914C13.2705 14.5895 12.0531 15.4777 11.4356 16.6598C10.8366 17.8066 10.8556 19.1372 11.4911 20.5084C13.1307 24.0389 15.4247 27.1281 18.3093 29.6904C18.3163 29.6967 18.3235 29.7028 18.3308 29.7089C21.2484 32.2356 24.7644 34.2451 28.7821 35.6823C29.5866 35.9694 30.3789 36.1132 31.1367 36.1132C31.8501 36.1132 32.5332 35.9858 33.1667 35.7309C34.5139 35.1891 35.5258 34.1208 36.0939 32.6406C36.3447 31.9844 36.3406 31.3418 36.0831 30.7334C35.5053 29.3555 31.0437 26.4794 29.3563 26.3989Z" fill="white"/>
</svg>
