<svg width="31" height="32" viewBox="0 0 31 32" fill="none" xmlns="http://www.w3.org/2000/svg">
<path d="M30.0388 15.7398C30.0491 19.9142 28.4787 23.922 25.6729 26.8814C22.8671 29.8408 19.0559 31.5095 15.0777 31.5203C11.0995 31.5311 7.28009 29.8832 4.45978 26.939C1.63946 23.9949 0.0492395 19.9957 0.0389415 15.8213C0.0286434 11.6468 1.59911 7.63905 4.40487 4.67963C7.21062 1.72021 11.0218 0.0515497 15.0001 0.0407438C18.9783 0.0299379 22.7977 1.67787 25.618 4.62201C28.4383 7.56615 30.0285 11.5653 30.0388 15.7398H30.0388ZM15.9594 8.89182C15.9588 8.63092 15.8594 8.38097 15.6831 8.19696C15.5068 8.01295 15.2681 7.90996 15.0195 7.91063C14.7708 7.91131 14.5326 8.0156 14.3573 8.20056C14.1819 8.38552 14.0838 8.63601 14.0844 8.89691L14.1125 20.2945L10.0784 16.0812C9.99097 15.99 9.88731 15.9177 9.77331 15.8686C9.6593 15.8194 9.53717 15.7942 9.4139 15.7946C9.29063 15.7949 9.16863 15.8207 9.05487 15.8705C8.94111 15.9203 8.83781 15.9931 8.75087 16.0848C8.66393 16.1766 8.59505 16.2853 8.54818 16.405C8.5013 16.5246 8.47733 16.6527 8.47765 16.7821C8.47797 16.9114 8.50257 17.0394 8.55004 17.1588C8.5975 17.2782 8.66691 17.3866 8.7543 17.4778L14.3938 23.365C14.4812 23.4563 14.5848 23.5287 14.6988 23.578C14.8128 23.6273 14.935 23.6525 15.0583 23.6522C15.1816 23.6518 15.3037 23.626 15.4174 23.5761C15.5312 23.5262 15.6345 23.4532 15.7213 23.3614L21.3318 17.4437C21.4187 17.352 21.4876 17.2432 21.5344 17.1236C21.5813 17.0039 21.6053 16.8758 21.605 16.7464C21.6047 16.6171 21.5801 16.4891 21.5326 16.3697C21.4851 16.2503 21.4157 16.1419 21.3283 16.0507C21.2409 15.9595 21.1373 15.8872 21.0233 15.838C20.9093 15.7888 20.7871 15.7637 20.6639 15.764C20.5406 15.7643 20.4186 15.7901 20.3048 15.8399C20.1911 15.8898 20.0878 15.9626 20.0008 16.0543L15.9875 20.2894L15.9594 8.89182Z" fill="#8068E7"/>
</svg>
