<svg width="40" height="39" viewBox="0 0 40 39" fill="none" xmlns="http://www.w3.org/2000/svg">
<path d="M20 0C25.3043 0 30.3914 2.02372 34.1421 5.62597C37.8929 9.22821 40 14.1139 40 19.2083C40 24.3026 37.8929 29.1883 34.1421 32.7905C30.3914 36.3928 25.3043 38.4165 20 38.4165C14.6957 38.4165 9.60859 36.3928 5.85786 32.7905C2.10714 29.1883 0 24.3026 0 19.2083C0 14.1139 2.10714 9.22821 5.85786 5.62597C9.60859 2.02372 14.6957 0 20 0V0ZM11.25 18.0077C10.9185 18.0077 10.6005 18.1342 10.3661 18.3594C10.1317 18.5845 10 18.8899 10 19.2083C10 19.5266 10.1317 19.832 10.3661 20.0571C10.6005 20.2823 10.9185 20.4088 11.25 20.4088H25.7325L20.365 25.5614C20.2488 25.673 20.1566 25.8055 20.0937 25.9513C20.0308 26.0972 19.9984 26.2535 19.9984 26.4113C19.9984 26.5692 20.0308 26.7255 20.0937 26.8713C20.1566 27.0172 20.2488 27.1497 20.365 27.2613C20.4812 27.3729 20.6192 27.4615 20.771 27.5219C20.9229 27.5823 21.0856 27.6134 21.25 27.6134C21.4144 27.6134 21.5771 27.5823 21.729 27.5219C21.8808 27.4615 22.0188 27.3729 22.135 27.2613L29.635 20.0582C29.7514 19.9467 29.8438 19.8142 29.9068 19.6684C29.9698 19.5225 30.0022 19.3662 30.0022 19.2083C30.0022 19.0503 29.9698 18.894 29.9068 18.7481C29.8438 18.6023 29.7514 18.4698 29.635 18.3583L22.135 11.1552C22.0188 11.0436 21.8808 10.955 21.729 10.8946C21.5771 10.8342 21.4144 10.8031 21.25 10.8031C21.0856 10.8031 20.9229 10.8342 20.771 10.8946C20.6192 10.955 20.4812 11.0436 20.365 11.1552C20.2488 11.2668 20.1566 11.3993 20.0937 11.5452C20.0308 11.691 19.9984 11.8473 19.9984 12.0052C19.9984 12.163 20.0308 12.3193 20.0937 12.4652C20.1566 12.611 20.2488 12.7435 20.365 12.8551L25.7325 18.0077H11.25Z" fill="#8068E7"/>
</svg>
