<svg width="109" height="93" viewBox="0 0 109 93" fill="none" xmlns="http://www.w3.org/2000/svg">
<path d="M84.0507 47.1726L69.3028 46.9503L88.7273 70.2027L108.631 47.5432L93.8826 47.3209C94.1472 21.9546 76.7623 1.14371 55.0338 0.816142C47.3157 0.69979 40.1109 3.23152 34.0176 7.61677L41.1075 16.1039C45.2147 13.5829 49.9489 12.2193 54.9141 12.2941C71.1859 12.5394 84.2488 28.1766 84.0507 47.1726ZM75.0923 85.8392L68.0024 77.3521C63.8466 79.815 59.1609 81.2367 54.1958 81.1619C37.924 80.9166 24.861 65.2794 25.0592 46.2833L39.807 46.5057L20.3826 23.2533L0.479335 45.9128L15.2272 46.1351C14.9627 71.5014 32.3475 92.3123 54.0761 92.6398C61.7941 92.7562 68.999 90.2245 75.0923 85.8392Z" fill="#6EBEE0"/>
</svg>
